Coordinates
version=1
nRows=30
nColumns=19
inDegrees=yes

Units are S.I. units (second, meters, Newtons, ...)
If the header above contains a line with 'inDegrees', this indicates whether rotational values are in degrees (yes) or radians (no).

endheader
time	subtalar_angle_l	subtalar_angle_r	pelvis_list	pelvis_rotation	pelvis_tilt	pelvis_tx	pelvis_ty	pelvis_tz	hip_flexion_l	hip_adduction_l	hip_rotation_l	hip_flexion_r	hip_adduction_r	hip_rotation_r	knee_flexion_l	knee_flexion_r	ankle_angle_l	ankle_angle_r
      2.13000000	      3.08038040	      7.39262761	     86.37369875	      8.03862368	      1.79306100	     -1.54815974	     -0.71726226	      0.66514827	     13.36565539	      1.02633601	     -9.70002971	     -3.24190624	      4.08885398	     21.88421206	    -45.77304169	     -3.35222110	    -13.72570448	    -22.98345057
      2.14000000	      3.08810733	      7.57573721	     86.30555566	      7.20313543	      1.85303340	     -1.54103341	     -0.71681092	      0.66533687	     15.75304254	      1.30104086	     -9.20360828	     -4.25381122	      4.04737899	     22.28050071	    -46.70397182	     -2.63395070	    -13.32852531	    -23.12209719
      2.15000000	      3.12764653	      7.76701451	     86.19196872	      6.38056945	      2.02026948	     -1.53388450	     -0.71634795	      0.66537829	     17.93460684	      1.66089684	     -8.82448009	     -5.38391087	      4.02875063	     22.65961038	    -47.43383968	     -1.90956328	    -12.79738774	    -23.33075205
      2.16000000	      3.19258070	      7.94888385	     86.04441804	      5.57376850	      2.27456569	     -1.52669491	     -0.71585454	      0.66528513	     19.89908355	      2.08216303	     -8.57910786	     -6.60849186	      4.02409354	     23.02846874	    -47.91404638	     -1.19614366	    -12.26418151	    -23.55309612
      2.17000000	      3.25699246	      8.11213576	     85.88407010	      4.77339993	      2.57885742	     -1.51943965	     -0.71531848	      0.66507849	     21.65150616	      2.53834824	     -8.46126773	     -7.88430157	      4.01394608	     23.39322429	    -48.09890025	     -0.51284938	    -11.81262524	    -23.75492368
      2.18000000	      3.29788940	      8.25909700	     85.71379233	      3.97389179	      2.90777540	     -1.51209575	     -0.71473564	      0.66476397	     23.19375724	      3.02281975	     -8.47147665	     -9.17699355	      3.99679639	     23.77451446	    -47.96338603	      0.11990496	    -11.47599306	    -23.92320649
      2.19000000	      3.31947681	      8.39253656	     85.53387451	      3.17318224	      3.24805480	     -1.50462768	     -0.71410422	      0.66435553	     24.50838797	      3.52592326	     -8.61481072	    -10.47757062	      3.97101985	     24.19391121	    -47.48155808	      0.70866007	    -11.22068670	    -24.08213450
      2.20000000	      3.31107954	      8.51719497	     85.34739605	      2.36804288	      3.58778085	     -1.49700641	     -0.71341459	      0.66385311	     25.58736033	      4.04046287	     -8.87721641	    -11.76258672	      3.93407588	     24.63744255	    -46.65689542	      1.22745628	    -11.08895918	    -24.20396816
      2.21000000	      3.28648561	      8.63731068	     85.12399088	      1.58822223	      3.91350322	     -1.48922131	     -0.71268003	      0.66325197	     26.43004688	      4.55591502	     -9.33726882	    -13.01240784	      3.92464637	     25.08489793	    -45.50784035	      1.66528026	    -11.06150769	    -24.28573342
      2.22000000	      3.22630944	      8.76253992	     84.94282593	      0.73958468	      4.27315280	     -1.48120307	     -0.71184623	      0.66258234	     26.92536995	      5.06835128	     -9.77764120	    -14.27838150	      3.83479668	     25.62002726	    -44.01098196	      2.02464326	    -11.12008172	    -24.39060300
      2.23000000	      3.15087472	      8.87497751	     84.73201653	     -0.05699836	      4.58847198	     -1.47292835	     -0.71096785	      0.66180533	     27.18751862	      5.55451259	    -10.40155560	    -15.50389340	      3.75534321	     26.10110602	    -42.25909390	      2.35817454	    -11.26364845	    -24.47452283
      2.24000000	      3.02119585	      8.98895799	     84.49398658	     -0.89884719	      4.95284715	     -1.46440124	     -0.71002460	      0.66092353	     27.09628494	      6.07250643	    -11.06578493	    -16.71748768	      3.68906182	     26.63816245	    -40.30242695	      2.52017741	    -11.51610550	    -24.57309531
      2.25000000	      2.72415013	      9.09460779	     84.18540233	     -1.74339423	      5.36866996	     -1.45559375	     -0.70905936	      0.65989675	     26.69650363	      6.66196890	    -11.75603100	    -17.94343211	      3.68601994	     27.19083864	    -38.25762783	      2.55026841	    -11.97842555	    -24.72665493
      2.26000000	      2.38964182	      9.20240547	     83.90411207	     -2.55753829	      5.71861420	     -1.44646908	     -0.70802698	      0.65878715	     26.05824060	      7.16040375	    -12.53857211	    -19.06316680	      3.64496921	     27.66587997	    -36.11593565	      2.46668070	    -12.43062118	    -24.86113788
      2.27000000	      1.92952625	      9.32833383	     83.62150681	     -3.35556179	      6.07151234	     -1.43702416	     -0.70695125	      0.65756691	     25.16893494	      7.63487464	    -13.29682621	    -20.13127504	      3.60567511	     28.10789075	    -34.00939844	      2.23196897	    -12.94412763	    -25.03585740
      2.28000000	      1.52853705	      9.45164080	     83.34663027	     -4.10883316	      6.37376306	     -1.42727653	     -0.70585288	      0.65624731	     24.12026645	      8.06023202	    -14.02223225	    -21.08103080	      3.57474416	     28.46957363	    -32.01108125	      1.83448667	    -13.32279002	    -25.21546874
      2.29000000	      0.46338968	      9.66183892	     83.12257385	     -4.82998116	      6.56326807	     -1.41724421	     -0.70470354	      0.65487798	     22.98256868	      8.39641764	    -14.67496271	    -21.82062406	      3.51696710	     28.75158709	    -30.14993482	      1.23853096	    -14.02103595	    -25.63143851
      2.30000000	      0.30231084	      9.72720280	     82.94319568	     -5.45810678	      6.81277861	     -1.40693061	     -0.70356161	      0.65340512	     21.68549799	      8.65406576	    -15.13471771	    -22.54486484	      3.45952640	     28.94344560	    -28.55648401	      0.46777685	    -14.06579405	    -25.80369111
      2.31000000	      0.04866399	      9.80684123	     82.85378457	     -5.99772841	      6.99483000	     -1.39639121	     -0.70239697	      0.65190756	     20.35196015	      8.77872084	    -15.43636921	    -23.09024606	      3.36895057	     29.01528088	    -27.19232016	     -0.50486463	    -14.09529972	    -26.16393007
      2.32000000	     -0.24950205	      9.87559570	     82.88195269	     -6.42582222	      7.09088188	     -1.38567597	     -0.70120688	      0.65041838	     19.03380087	      8.74268691	    -15.57721257	    -23.41305271	      3.23788800	     28.91940495	    -26.04885795	     -1.70841999	    -14.04526883	    -26.68679239
      2.33000000	     -0.46451724	      9.89834733	     83.04265080	     -6.72845217	      7.08294606	     -1.37484508	     -0.69998980	      0.64897534	     17.77715427	      8.53854078	    -15.56621424	    -23.47825212	      3.06563166	     28.67157965	    -25.09880249	     -3.15338248	    -13.89470569	    -27.27901250
      2.34000000	     -0.57542580	      9.87760975	     83.35688445	     -6.88853139	      6.99922834	     -1.36395754	     -0.69874430	      0.64761165	     16.56744977	      8.15709421	    -15.43036929	    -23.30532218	      2.83832379	     28.22652791	    -24.28425398	     -4.83757878	    -13.65617547	    -27.97008221
      2.35000000	     -0.54372041	      9.97242563	     83.83817547	     -6.89918190	      6.81403433	     -1.35307152	     -0.69744983	      0.64637495	     15.44190938	      7.58831476	    -15.23232881	    -22.86521900	      2.54539202	     27.62737201	    -23.55377164	     -6.74799765	    -13.22523114	    -29.10790595
      2.36000000	     -0.37726979	      9.78888304	     84.48815237	     -6.75597431	      6.60619028	     -1.34226614	     -0.69612027	      0.64525343	     14.35211268	      6.86524227	    -14.93139428	    -22.18240704	      2.18605004	     26.68551607	    -22.86888009	     -8.98601037	    -12.98836635	    -29.72372009
      2.37000000	      0.15997929	      9.87196580	     85.30861470	     -6.46197320	      6.22396310	     -1.33160298	     -0.69470820	      0.64435000	     13.40848892	      5.95650329	    -14.72889741	    -21.14302945	      1.73671855	     25.56944234	    -22.11419177	    -11.43792834	    -12.52355188	    -31.00320608
      2.38000000	      0.54509893	      9.65646695	     86.26689450	     -6.05995806	      5.90889275	     -1.32113592	     -0.69323619	      0.64357658	     12.43660530	      4.97025492	    -14.37212408	    -19.94963123	      1.19661627	     24.15367304	    -21.34920853	    -14.19950151	    -12.32890069	    -31.66086559
      2.39000000	      1.08513308	      9.52764833	     87.36028487	     -5.53731961	      5.46236123	     -1.31092475	     -0.69166618	      0.64303541	     11.56601173	      3.84708442	    -14.15983953	    -18.44107357	      0.54409822	     22.56979122	    -20.44248766	    -17.15762873	    -12.15056102	    -32.46979474
      2.40000000	      2.23918310	      9.89136237	     88.53094961	     -4.96489597	      4.80461552	     -1.30099789	     -0.68997611	      0.64277160	     10.87708116	      2.65875643	    -14.03041158	    -16.56542684	     -0.18931282	     21.01111765	    -19.38292615	    -20.24184057	    -11.92559667	    -33.76320108
      2.41000000	      3.04395796	      9.90296746	     89.75694558	     -4.32919348	      4.31001481	     -1.29136005	     -0.68820412	      0.64264907	     10.01519461	      1.44075412	    -13.90181738	    -14.70743624	     -1.02809002	     19.30677649	    -18.22710818	    -23.46658179	    -11.85899331	    -34.32942442
      2.42000000	      3.86704864	      9.94960811	     90.95924534	     -3.68841871	      3.75950756	     -1.28202681	     -0.68633926	      0.64275673	      9.17930497	      0.26072008	    -13.78785566	    -12.68125291	     -1.90165243	     17.66253125	    -16.93884940	    -26.71849091	    -11.89214841	    -34.79741612
